<?xml version="1.0" encoding="UTF-8"?>
<svg width="331px" height="80px" viewBox="0 0 331 80" version="1.1" xmlns="http://www.w3.org/2000/svg" xmlns:xlink="http://www.w3.org/1999/xlink">
    <!-- Generator: Sketch 43.1 (39012) - http://www.bohemiancoding.com/sketch -->
    <title>logo</title>
    <desc>Created with Sketch.</desc>
    <defs></defs>
    <g id="Page-1" stroke="none" stroke-width="1" fill="none" fill-rule="evenodd">
        <g id="logo">
            <path d="M58.2031252,55.6500826 C61.3030376,55.329641 63.6546953,52.6592915 63.5478017,49.4548721 C63.4409081,46.2504528 60.7685699,43.686917 57.5617639,43.686917 L57.347977,43.686917 C54.0342774,43.7937311 51.4688327,46.5708948 51.5757263,49.8821279 C51.68262,51.4843377 52.323981,52.8729193 53.2860228,53.8342452 C49.6516427,60.9907816 44.0931793,66.2246666 35.7554836,70.6040397 C30.0901266,73.5948311 24.2109824,74.6629708 18.3318382,73.9152731 C13.5216293,73.2743892 9.78035572,71.1381095 7.42869806,67.6132485 C4.00810505,62.3793633 3.68742445,56.7182226 6.57354981,51.0570816 C8.60452687,46.9981505 11.8113328,44.007359 13.8423099,42.5119633 C13.4147358,41.1233816 12.7733746,38.7734741 12.452694,37.0644505 C-3.04686798,48.2799184 -1.44346501,63.4475033 3.25985034,70.6040397 C6.78733686,75.9447387 13.9492034,79.2559721 21.8593247,79.2559721 C23.9971953,79.2559721 26.135066,79.0423439 28.2729366,78.5082741 C41.9553084,75.8379246 52.323981,67.7200623 58.2031252,55.6500826 Z M77.0163867,42.4051495 C68.8924783,32.8987052 56.9204029,27.6648204 43.2380307,27.6648204 L41.5277343,27.6648204 C40.5656925,25.7421688 38.5347155,24.4604011 36.2899514,24.4604011 L36.0761645,24.4604011 C32.7624648,24.567215 30.1970201,27.3443785 30.3039136,30.6556118 C30.4108072,33.8600311 33.0831454,36.4235666 36.2899514,36.4235666 L36.5037386,36.4235666 C38.855396,36.3167528 40.8863733,34.821357 41.7415215,32.7918915 L43.6656052,32.7918915 C51.7895132,32.7918915 59.4858475,35.141799 66.4339272,39.7348 C71.7786038,43.2596613 75.6267707,47.8526623 77.7646413,53.4069892 C79.5818313,57.8931764 79.4749377,62.2725495 77.5508544,66.0110387 C74.5578353,71.6721797 69.5338396,74.7697849 62.9064404,74.7697849 C58.6306993,74.7697849 54.5687451,73.488017 52.4308746,72.5266915 C51.2550458,73.5948311 49.117175,75.3038548 47.6206658,76.3719948 C52.2170873,78.5082741 56.9204029,79.6832279 61.4099312,79.6832279 C71.6717101,79.6832279 79.2611508,74.0220872 82.147276,68.3609462 C85.2471884,62.1657354 85.0334015,51.4843377 77.0163867,42.4051495 Z M22.7144729,57.4659203 C22.8213665,60.6703397 25.4937048,63.2338754 28.7005107,63.2338754 L28.9142977,63.2338754 C32.2279972,63.1270613 34.7934418,60.3498977 34.6865485,57.0386646 C34.5796549,53.8342452 31.9073166,51.2707095 28.7005107,51.2707095 L28.4867236,51.2707095 C28.2729366,51.2707095 27.952256,51.2707095 27.7384689,51.3775236 C23.3558341,44.1141731 21.5386441,36.2099387 22.1800053,27.6648204 C22.6075794,21.2559817 24.74545,15.7016548 28.4867236,11.1086538 C31.586636,7.15653656 37.5726737,5.23388495 41.6346279,5.12707095 C52.9653423,4.91344302 57.7755511,19.0128882 58.0962316,24.674029 C59.4858475,24.994471 61.8375053,25.7421688 63.4409081,26.2762387 C62.1581858,8.9723742 51.4688327,0 41.2070538,0 C31.586636,0 22.7144729,6.94290859 19.1869864,17.1970505 C14.269884,30.8692398 17.47669,44.007359 23.4627277,54.3683151 C22.92826,55.1160128 22.6075794,56.2909666 22.7144729,57.4659203 Z" id="Shape" fill="#764ABC" fill-rule="nonzero"></path>
            <text id="React-News" font-family="RTWSYueGoTrial-ExLight, RTWS YueGothic Trial" font-size="48" font-weight="300" fill="#FFFFFF">
                <tspan x="98" y="53">React-News</tspan>
            </text>
        </g>
    </g>
</svg>